<svg width="36" height="36" viewBox="0 0 36 36" fill="none" xmlns="http://www.w3.org/2000/svg">
<path fill-rule="evenodd" clip-rule="evenodd" d="M19.0001 11C19.0001 11.5523 18.5523 12 18.0001 12C17.4478 12 17.0001 11.5523 17.0001 11C17.0001 10.4477 17.4478 10 18.0001 10C18.5523 10 19.0001 10.4477 19.0001 11ZM18.9334 20.8626C18.8575 21.4097 19.2395 21.9146 19.7865 21.9905C20.6477 22.1099 20.9201 22.5566 20.9822 22.8302C21.0615 23.1793 20.8944 23.2588 20.8743 23.2668L18.0001 23.9705L15.1258 23.2668C15.1057 23.2588 14.9387 23.1793 15.0179 22.8302C15.08 22.5566 15.3525 22.1099 16.2136 21.9905C16.7606 21.9146 17.1426 21.4097 17.0667 20.8626C16.9927 20.3289 16.5103 19.9523 15.9788 20.0047C15.9465 20.0016 15.9138 20 15.8807 20C15.728 20 15.2916 19.9567 14.7431 19.8036C14.2017 19.6526 13.6172 19.4126 13.1296 19.0608C12.6492 18.7143 12.2883 18.2795 12.116 17.7248C11.9441 17.1717 11.9239 16.3844 12.3327 15.2663C12.392 15.104 12.4076 14.931 12.3807 14.7639L13.4457 15.4101C13.665 15.5434 13.7834 15.6677 13.8563 15.7955C13.9295 15.9239 14.0001 16.1317 14.0001 16.5C14.0001 17.0523 14.4478 17.5 15.0001 17.5C15.5524 17.5 16.0001 17.0523 16.0001 16.5C16.0001 15.8683 15.8763 15.3002 15.5935 14.8045C15.3103 14.3081 14.9106 13.9599 14.4832 13.7002L11.9202 12.1451C11.687 12.0036 11.4062 11.9635 11.1427 12.0341C10.8793 12.1046 10.6561 12.2797 10.5248 12.5188C10.0986 13.2954 10.0527 14.1875 10.3233 14.9648C9.92472 16.2337 9.90551 17.3512 10.2061 18.3184C10.5362 19.3807 11.2165 20.1468 11.9594 20.6828C12.4401 21.0296 12.9571 21.2881 13.4501 21.4794C13.2688 21.7605 13.1403 22.0672 13.0676 22.3874C12.8241 23.4598 13.2596 24.8379 14.6107 25.1995L14.6314 25.2048L17.7432 25.9667C17.826 25.9887 17.9123 26.0003 18.0001 26.0002C18.0879 26.0003 18.1741 25.9887 18.2569 25.9667L21.3687 25.2048L21.3894 25.1995C22.7405 24.8379 23.176 23.4598 22.9326 22.3874C22.8566 22.0529 22.7197 21.7332 22.5254 21.4419C22.9896 21.2547 23.4714 21.0074 23.9214 20.6828C24.6643 20.1468 25.3446 19.3807 25.6747 18.3184C25.9753 17.3512 25.9561 16.2337 25.5575 14.9648C25.8281 14.1875 25.7822 13.2954 25.3559 12.5188C25.2247 12.2797 25.0015 12.1046 24.7381 12.0341C24.4746 11.9635 24.1938 12.0036 23.9606 12.1451L21.3976 13.7002C20.9702 13.9599 20.5705 14.3081 20.2873 14.8045C20.0045 15.3002 19.8807 15.8683 19.8807 16.5C19.8807 17.0523 20.3284 17.5 20.8807 17.5C21.433 17.5 21.8807 17.0523 21.8807 16.5C21.8807 16.1317 21.9513 15.9239 22.0245 15.7955C22.0974 15.6677 22.2158 15.5434 22.4351 15.4101L23.5001 14.7639C23.4732 14.931 23.4888 15.104 23.5481 15.2663C23.9569 16.3844 23.9367 17.1717 23.7648 17.7248C23.5925 18.2795 23.2316 18.7143 22.7512 19.0608C22.2636 19.4126 21.6791 19.6526 21.1377 19.8036C20.5892 19.9567 20.1528 20 20.0001 20C19.9876 20 19.9752 20.0002 19.9628 20.0007C19.4549 19.9803 19.0047 20.3486 18.9334 20.8626ZM15.6056 13.0528C15.8526 12.5588 16.4533 12.3586 16.9473 12.6055C17.2988 12.7813 17.672 12.9815 18.0001 13.2483C18.3282 12.9815 18.7013 12.7813 19.0528 12.6055C19.5468 12.3586 20.1475 12.5588 20.3945 13.0528C20.6415 13.5467 20.4413 14.1474 19.9473 14.3944C19.4498 14.6431 19.2467 14.7896 19.1427 14.9142C19.0816 14.9873 19.0007 15.1128 19.0001 15.4955C19.0001 15.497 19.0001 15.4985 19.0001 15.5C19.0001 16.0523 18.5524 16.5 18.0001 16.5C17.9655 16.5 17.9314 16.4982 17.8978 16.4948C17.6972 16.4744 17.5141 16.3948 17.3664 16.2736C17.1427 16.0902 17.0001 15.8118 17.0001 15.5C17.0001 15.4985 17.0001 15.497 17.0001 15.4955C16.9994 15.1128 16.9185 14.9873 16.8574 14.9142C16.7535 14.7896 16.5503 14.6431 16.0529 14.3944C15.5589 14.1474 15.3587 13.5467 15.6056 13.0528Z" fill="#EE3C3C"/>
</svg>
