<svg width="48" height="48" viewBox="0 0 48 48" fill="none" xmlns="http://www.w3.org/2000/svg">
<path fill-rule="evenodd" clip-rule="evenodd" d="M29 18.7836C29 17.7981 28.204 17 27.221 17C25.404 17 22.596 17 20.779 17C19.796 17 19 17.7981 19 18.7836C19 21.5318 19 26.8185 19 30.0047C19 30.4198 19.256 30.7928 19.643 30.9412C20.031 31.0896 20.469 30.9833 20.746 30.6735C21.739 29.5596 22.908 28.2502 23.539 27.5424C23.656 27.411 23.824 27.3358 24 27.3358C24.176 27.3358 24.344 27.411 24.461 27.5424C25.092 28.2502 26.261 29.5596 27.254 30.6735C27.531 30.9833 27.969 31.0896 28.357 30.9412C28.744 30.7928 29 30.4198 29 30.0047C29 26.8185 29 21.5318 29 18.7836Z" fill="#FC2C38"/>
</svg>
