<svg width="36" height="36" viewBox="0 0 36 36" fill="none" xmlns="http://www.w3.org/2000/svg">
<path fill-rule="evenodd" clip-rule="evenodd" d="M14.5 11H19C21.4853 11 23.5 13.0147 23.5 15.5C23.5 17.9853 21.4853 20 19 20H15.5V21H20.5C21.0523 21 21.5 21.4477 21.5 22C21.5 22.5523 21.0523 23 20.5 23H15.5V24C15.5 24.5523 15.0523 25 14.5 25C13.9477 25 13.5 24.5523 13.5 24V23C12.9477 23 12.5 22.5523 12.5 22C12.5 21.4477 12.9477 21 13.5 21V20C12.9477 20 12.5 19.5523 12.5 19C12.5 18.4477 12.9477 18 13.5 18V12C13.5 11.4477 13.9477 11 14.5 11ZM15.5 18H19C20.3807 18 21.5 16.8807 21.5 15.5C21.5 14.1193 20.3807 13 19 13H15.5V18Z" fill="#24C780"/>
</svg>
