<svg width="36" height="36" viewBox="0 0 36 36" fill="none" xmlns="http://www.w3.org/2000/svg">
<path fill-rule="evenodd" clip-rule="evenodd" d="M10 12C10 11.4477 10.4477 11 11 11H13C13.4888 11 13.906 11.3534 13.9864 11.8356L14.1805 13H25C25.5523 13 26 13.4477 26 14V17.8509C26 19.1174 25.0875 20.1996 23.8393 20.4136L14.9649 21.9352C14.9143 21.9438 14.864 21.9485 14.8142 21.9495C14.766 21.9654 14.716 21.9778 14.6644 21.9864C14.1196 22.0772 13.6044 21.7092 13.5136 21.1644L12.1529 13H11C10.4477 13 10 12.5523 10 12ZM15.3213 19.8449L14.5138 15H24V17.8509C24 18.1432 23.7894 18.3929 23.5014 18.4423L15.3213 19.8449ZM17 24.5C17 25.3284 16.3284 26 15.5 26C14.6716 26 14 25.3284 14 24.5C14 23.6716 14.6716 23 15.5 23C16.3284 23 17 23.6716 17 24.5ZM24 24.5C24 25.3284 23.3284 26 22.5 26C21.6716 26 21 25.3284 21 24.5C21 23.6716 21.6716 23 22.5 23C23.3284 23 24 23.6716 24 24.5Z" fill="#F94CA3"/>
</svg>
