<svg width="36" height="36" viewBox="0 0 36 36" fill="none" xmlns="http://www.w3.org/2000/svg">
<path fill-rule="evenodd" clip-rule="evenodd" d="M21.6569 12.929C20.4853 11.7574 18.5858 11.7574 17.4143 12.929L15.2929 15.0503C14.9024 15.4408 14.9024 16.074 15.2929 16.4645L16 17.1716C16.1876 17.3591 16.2929 17.6135 16.2929 17.8787C16.2929 18.1439 16.1876 18.3983 16 18.5858L12.0503 22.5356V23.9498H13.6239L17.3998 20.0148C17.5859 19.8208 17.8423 19.71 18.111 19.7072C18.3798 19.7044 18.6384 19.81 18.8285 20L19.5356 20.7071C19.9261 21.0977 20.5593 21.0977 20.9498 20.7071L23.0711 18.5858C24.2427 17.4143 24.2427 15.5148 23.0711 14.3432L21.6569 12.929ZM16 11.5148C17.9527 9.56214 21.1185 9.56214 23.0711 11.5148L24.4853 12.929C26.4379 14.8816 26.4379 18.0474 24.4853 20L22.364 22.1214C21.1973 23.288 19.3089 23.2929 18.1362 22.1361L14.7718 25.6422C14.5833 25.8387 14.3227 25.9498 14.0503 25.9498H11.0503C10.498 25.9498 10.0503 25.5021 10.0503 24.9498V22.1214C10.0503 21.8561 10.1556 21.6018 10.3432 21.4143L13.8787 17.8787C12.7071 16.7071 12.7071 14.8077 13.8787 13.6361L16 11.5148ZM18.8284 14.3433C19.219 13.9527 19.8521 13.9527 20.2426 14.3433L21.6569 15.7575C22.0474 16.148 22.0474 16.7812 21.6569 17.1717C21.2663 17.5622 20.6332 17.5622 20.2426 17.1717L18.8284 15.7575C18.4379 15.3669 18.4379 14.7338 18.8284 14.3433Z" fill="#EEAC2C"/>
</svg>
