<svg width="46" height="46" viewBox="0 0 46 46" fill="none" xmlns="http://www.w3.org/2000/svg">
<path fill-rule="evenodd" clip-rule="evenodd" d="M18 16C16.1802 16 15 17.7007 15 19.4C15 20.0099 15.1858 20.5563 15.3637 20.9893C15.4383 21.171 15.5204 21.3528 15.5937 21.5151L15.6356 21.6079C15.7226 21.8012 15.7954 21.9681 15.8541 22.1269C15.9427 22.3666 16 22.6656 16 23C16 23.3344 15.9427 23.6334 15.8541 23.8731C15.7954 24.0319 15.7226 24.1988 15.6356 24.3921L15.5937 24.4849L15.5937 24.4849C15.5204 24.6473 15.4383 24.829 15.3637 25.0107C15.1858 25.4437 15 25.9901 15 26.6C15 28.2993 16.1802 30 18 30H28C29.8198 30 31 28.2993 31 26.6C31 25.9901 30.8142 25.4437 30.6363 25.0107C30.5617 24.829 30.4796 24.6473 30.4063 24.4849L30.4063 24.4849L30.3644 24.3921C30.2774 24.1988 30.2046 24.0319 30.1459 23.8731C30.0573 23.6334 30 23.3344 30 23C30 22.6656 30.0573 22.3666 30.1459 22.1269C30.2046 21.9681 30.2774 21.8012 30.3644 21.6078L30.4063 21.5151C30.4796 21.3528 30.5617 21.171 30.6363 20.9893C30.8142 20.5563 31 20.0099 31 19.4C31 17.7007 29.8198 16 28 16H18ZM17 19.4C17 18.4483 17.6107 18 18 18L24 18V19C24 19.5523 24.4477 20 25 20C25.5523 20 26 19.5523 26 19V18L28 18C28.3893 18 29 18.4483 29 19.4C29 19.616 28.9329 19.8724 28.7863 20.2294C28.7259 20.3763 28.6606 20.521 28.5875 20.683L28.5404 20.7874C28.4521 20.9839 28.3544 21.205 28.2699 21.4336C28.0943 21.9087 28 22.4438 28 23C28 23.5562 28.0943 24.0913 28.2699 24.5664C28.3544 24.795 28.4521 25.0161 28.5404 25.2126L28.5875 25.317L28.5875 25.317C28.6606 25.479 28.7259 25.6237 28.7863 25.7706C28.9329 26.1276 29 26.384 29 26.6C29 27.5517 28.3893 28 28 28H26V27C26 26.4477 25.5523 26 25 26C24.4477 26 24 26.4477 24 27V28H18C17.6107 28 17 27.5517 17 26.6C17 26.384 17.0671 26.1276 17.2137 25.7706C17.2741 25.6237 17.3394 25.479 17.4125 25.317L17.4596 25.2126C17.5479 25.0161 17.6456 24.795 17.7301 24.5664C17.9057 24.0913 18 23.5562 18 23C18 22.4438 17.9057 21.9087 17.7301 21.4336C17.6456 21.205 17.5479 20.9839 17.4596 20.7874L17.4125 20.683C17.3394 20.521 17.2741 20.3763 17.2137 20.2294C17.0671 19.8724 17 19.616 17 19.4ZM25 21C24.4477 21 24 21.4477 24 22V24C24 24.5523 24.4477 25 25 25C25.5523 25 26 24.5523 26 24V22C26 21.4477 25.5523 21 25 21Z" fill="#3BBAFE"/>
</svg>
