<svg width="36" height="36" viewBox="0 0 36 36" fill="none" xmlns="http://www.w3.org/2000/svg">
<path fill-rule="evenodd" clip-rule="evenodd" d="M20.8646 10.8928C22.0361 9.72127 23.9356 9.72127 25.1072 10.8928C26.2788 12.0644 26.2788 13.9639 25.1072 15.1355L22.7169 17.5257L24.7555 22.0106C25.1243 22.8219 24.9511 23.7769 24.3209 24.4071C23.4489 25.2791 22.0219 25.2346 21.206 24.3098L18.7342 21.5085L18.1293 22.1134L18.3525 23.3787C18.4785 24.0925 18.2483 24.8228 17.7358 25.3354C16.7139 26.3572 15.0039 26.1467 14.2604 24.9075L13.0724 22.9276L11.0925 21.7397C9.85338 20.9962 9.64286 19.2861 10.6647 18.2643C11.1772 17.7518 11.9076 17.5215 12.6214 17.6475L13.8866 17.8708L14.4915 17.2659L11.6903 14.7941C10.7655 13.9782 10.721 12.5512 11.593 11.6792C12.2232 11.049 13.1782 10.8758 13.9895 11.2446L18.4743 13.2831L20.8646 10.8928ZM23.693 12.3071C23.3025 11.9165 22.6693 11.9165 22.2788 12.3071L19.3985 15.1874C19.1037 15.4821 18.657 15.5631 18.2776 15.3906L13.1619 13.0653C13.1095 13.0415 13.0479 13.0527 13.0072 13.0934C12.9509 13.1497 12.9538 13.2418 13.0135 13.2945L16.613 16.4704C16.8199 16.6531 16.9422 16.9132 16.9508 17.1891C16.9595 17.465 16.8536 17.7322 16.6584 17.9274L14.9327 19.6531C14.7019 19.8839 14.3731 19.9875 14.0518 19.9308L12.2738 19.6171C12.2027 19.6045 12.13 19.6274 12.0789 19.6785C11.9771 19.7803 11.9981 19.9506 12.1215 20.0247L14.3158 21.3412C14.4566 21.4257 14.5744 21.5435 14.6588 21.6842L15.9754 23.8785C16.0494 24.002 16.2198 24.0229 16.3215 23.9211C16.3726 23.8701 16.3955 23.7973 16.383 23.7262L16.0692 21.9483C16.0125 21.6269 16.1162 21.2981 16.3469 21.0674L18.0727 19.3416C18.2679 19.1464 18.5351 19.0406 18.811 19.0492C19.0869 19.0578 19.347 19.1801 19.5296 19.3871L22.7056 22.9866C22.7583 23.0463 22.8504 23.0492 22.9067 22.9929C22.9474 22.9522 22.9586 22.8905 22.9348 22.8382L20.6094 17.7225C20.437 17.343 20.5179 16.8963 20.8127 16.6016L23.693 13.7213C24.0835 13.3307 24.0835 12.6976 23.693 12.3071Z" fill="#C15DF3"/>
</svg>
