<svg width="38" height="38" viewBox="0 0 38 38" fill="none" xmlns="http://www.w3.org/2000/svg">
<rect x="0.794678" y="1.12915" width="36" height="36" rx="8" transform="rotate(-0.42033 0.794678 1.12915)" fill="white"/>
<path fill-rule="evenodd" clip-rule="evenodd" d="M22.3471 17.0425L15.0409 24.4567L13.4665 24.7152L13.6485 23.0203L20.9225 15.6387L22.3471 17.0425ZM23.7509 15.618L24.4528 14.9057C24.8404 14.5124 24.8358 13.8792 24.4424 13.4916C24.049 13.1039 23.4158 13.1086 23.0282 13.5019L22.3263 14.2142L23.7509 15.618ZM25.8773 16.3095L16.008 26.3247L11.1974 27.1146L11.7344 22.1133L21.6037 12.0981C22.7666 10.918 24.666 10.9041 25.8462 12.067C27.0263 13.23 27.0402 15.1294 25.8773 16.3095Z" fill="#333333"/>
<rect x="1.29833" y="1.62547" width="35" height="35" rx="7.5" transform="rotate(-0.42033 1.29833 1.62547)" stroke="#00103D" stroke-opacity="0.12"/>
</svg>
